<?xml version="1.0" encoding="utf-8"?>
<!-- Generator: Adobe Illustrator 16.0.0, SVG Export Plug-In . SVG Version: 6.00 Build 0)  -->
<!DOCTYPE svg PUBLIC "-//W3C//DTD SVG 1.1//EN" "http://www.w3.org/Graphics/SVG/1.1/DTD/svg11.dtd">
<svg version="1.1" id="Ebene_1" xmlns="http://www.w3.org/2000/svg" xmlns:xlink="http://www.w3.org/1999/xlink" x="0px" y="0px"
	 width="566.93px" height="566.93px" viewBox="0 0 566.93 566.93" enable-background="new 0 0 566.93 566.93" xml:space="preserve">
<path fill="#FFFFFF" d="M452.755,193.866c0-93.347-75.943-169.29-169.29-169.29s-169.29,75.943-169.29,169.29
	c0,83.979,61.718,155.19,144.29,167.439v56.653h-61.1v50h61.1v74.802h50v-74.802h61.1v-50h-61.1v-56.653
	C391.037,349.057,452.755,277.846,452.755,193.866z M283.465,74.576c65.776,0,119.29,53.513,119.29,119.29
	s-53.514,119.29-119.29,119.29c-65.777,0-119.29-53.513-119.29-119.29S217.688,74.576,283.465,74.576z"/>
</svg>
