<svg xmlns="http://www.w3.org/2000/svg" width="566.93" height="566.93" viewBox="0 0 566.93 566.93"><path fill="#FFF" d="M448.273 323.009l-19.271-11.243c-20.878-12.847-20.878-43.36 0-56.208l19.271-11.242c16.061-9.636 20.878-28.907 11.242-43.361l-16.06-27.301c-9.636-16.06-28.907-20.877-43.361-11.241l-19.271 11.241c-20.878 12.848-48.18-3.212-48.18-27.301V123.87c0-17.666-14.453-32.12-32.119-32.12h-32.119c-17.666 0-32.12 14.454-32.12 32.12v20.877c0 24.089-27.301 40.149-48.179 27.301l-19.272-9.635c-16.06-9.636-35.331-3.212-43.361 11.241l-16.06 27.301c-8.03 16.06-3.212 35.332 11.241 44.967l19.272 11.242c20.877 11.242 20.877 43.361 0 54.602l-19.272 11.243c-16.06 9.635-20.877 28.907-11.241 43.36l16.06 27.302c9.636 16.06 28.907 20.878 43.361 11.241l19.272-9.636c20.877-12.848 48.179 3.212 48.179 27.302v22.483c0 17.666 14.454 32.12 32.12 32.12h32.119c17.666 0 32.119-14.454 32.119-32.12v-20.878c0-24.089 27.302-40.148 48.18-27.301l19.271 11.241c16.06 9.636 35.331 3.212 43.361-11.241l16.06-27.302c8.031-17.664 3.213-36.936-11.242-46.571zm-163.808 25.694c-35.332 0-64.239-28.907-64.239-64.238 0-35.332 28.907-64.239 64.239-64.239 35.331 0 64.239 28.907 64.239 64.239 0 35.331-28.908 64.238-64.239 64.238z"/></svg>