<svg xmlns="http://www.w3.org/2000/svg" width="566.93" height="566.93" viewBox="0 0 566.93 566.93"><path fill="#FFF" d="M399.845 245.33c0 13.575-11.009 24.586-24.585 24.586s-24.586-11.011-24.586-24.586 11.01-24.58 24.586-24.58 24.585 11.005 24.585 24.58m-58.299 80.237c0 21.126-26.045 38.252-58.17 38.252-32.123 0-58.167-17.126-58.167-38.252 0-21.127 26.044-38.256 58.167-38.256 32.125.002 58.17 17.129 58.17 38.256M213.612 245.33c0 13.575-11.002 24.586-24.581 24.586-13.576 0-24.585-11.011-24.585-24.586s11.009-24.58 24.585-24.58c13.579 0 24.581 11.005 24.581 24.58m281.259-71.842c18.628-27.614 12.14-64.572-14.492-82.528-26.638-17.975-63.33-10.141-81.953 17.476-.626.926-1.157 1.894-1.724 2.843-33.906-14.644-72.435-22.97-113.326-22.97-40.897 0-79.418 8.326-113.321 22.97-.573-.949-1.099-1.917-1.727-2.843-18.628-27.616-55.315-35.45-81.95-17.476-26.634 17.956-33.123 54.914-14.491 82.528 1.763 2.623 3.738 5.002 5.805 7.258-24.993 31.792-39.569 69.706-39.569 110.456 0 112.057 109.805 203.026 245.253 202.896 131.722-.127 245.259-91.03 245.259-202.895 0-40.75-14.577-78.663-39.574-110.456 2.074-2.256 4.041-4.637 5.81-7.259"/></svg>