<svg xmlns="http://www.w3.org/2000/svg" width="566.93" height="566.93" viewBox="0 0 566.93 566.93"><path fill="#FFF" d="M460.533 214.17L413.998 71.602c-1.912-5.876-4.705-12.287-13.368-16.688-8.661-4.394-14.526-3.196-21.1-1.052l-142.842 46.632c-6.921 2.248-12.016 6.583-15.211 12.889-7.169 14.109-.01 29.894 11.684 35.837 6.135 3.105 12.847 3.745 19.902 1.429l82.774-27.011-46.622 91.799c-67.26-24.581-144.841.107-184.558 63.15-45.716 72.564-23.951 168.449 48.614 214.166 72.564 45.715 168.449 23.95 214.165-48.614 42.006-66.676 27.032-153.035-31.967-202.078l47.886-94.289 27.018 82.773c2.306 7.064 6.767 12.098 12.89 15.22 11.693 5.931 28.665 2.41 35.837-11.698 3.206-6.316 3.709-12.98 1.433-19.897zM309.391 407.568c-25.519 40.507-79.044 52.656-119.55 27.137-40.507-25.52-52.655-79.043-27.136-119.549 25.519-40.507 79.042-52.657 119.549-27.138 40.506 25.52 52.655 79.045 27.137 119.55z"/></svg>