<?xml version="1.0" encoding="utf-8"?>
<!-- Generator: Adobe Illustrator 16.0.0, SVG Export Plug-In . SVG Version: 6.00 Build 0)  -->
<!DOCTYPE svg PUBLIC "-//W3C//DTD SVG 1.1//EN" "http://www.w3.org/Graphics/SVG/1.1/DTD/svg11.dtd">
<svg version="1.1" id="Ebene_1" xmlns="http://www.w3.org/2000/svg" xmlns:xlink="http://www.w3.org/1999/xlink" x="0px" y="0px"
	 width="566.93px" height="566.93px" viewBox="0 0 566.93 566.93" enable-background="new 0 0 566.93 566.93" xml:space="preserve">
<path fill="#FFFFFF" d="M449.359,35.297L294.534,74.401l11.553,45.736l77.582-19.595l-64.123,104.423
	c-21.066-9-43.304-13.56-66.169-13.56c-28.413,0-56.602,7.205-81.518,20.836c-25.719,14.07-47.462,34.779-62.88,59.886
	c-23.664,38.534-30.904,83.976-20.388,127.956c10.515,43.979,37.527,81.23,76.062,104.894c26.686,16.387,57.271,25.049,88.45,25.049
	c28.416,0,56.604-7.205,81.518-20.836c25.719-14.07,47.463-34.778,62.881-59.887c43.944-71.563,28.615-164.542-35.339-218.189
	l62.354-101.541l16.646,65.907l45.736-11.552L449.359,35.297z M354.894,423.139c-21.875,35.62-59.927,56.887-101.791,56.887
	c-21.938,0-43.477-6.105-62.286-17.656c-27.153-16.675-46.188-42.924-53.598-73.914c-7.41-30.989-2.307-63.01,14.367-90.163
	c21.874-35.621,59.926-56.887,101.79-56.887c21.937,0,43.475,6.105,62.287,17.657C371.714,293.482,389.313,367.087,354.894,423.139z
	"/>
</svg>
