<svg xmlns="http://www.w3.org/2000/svg" width="566.93" height="566.93" viewBox="0 0 566.93 566.93"><path fill="#FFF" d="M382.805 392.455l-71.127.002V345.4c72.293-13.27 127.077-76.596 127.077-152.725 0-85.764-69.525-155.29-155.29-155.29-85.764 0-155.29 69.526-155.29 155.29 0 76.132 54.788 139.46 127.085 152.727l.003 47.056-71.127-.001c-11.137.001-20.15 9.049-20.151 20.209v16c.001 11.164 9.014 20.208 20.149 20.207l71.129.001v71.123c.002 11.138 9.05 20.149 20.208 20.149l16.003.003c11.163 0 20.208-9.015 20.204-20.151v-71.124l71.125-.001c11.127.004 20.152-9.04 20.147-20.207v-16.003c-.001-11.153-9.021-20.206-20.145-20.208zM196.78 192.676c0-47.875 38.811-86.685 86.685-86.685 47.876 0 86.685 38.811 86.685 86.685s-38.809 86.685-86.685 86.685c-47.875 0-86.685-38.811-86.685-86.685z"/></svg>