<?xml version="1.0" encoding="utf-8"?>
<!-- Generator: Adobe Illustrator 16.0.0, SVG Export Plug-In . SVG Version: 6.00 Build 0)  -->
<!DOCTYPE svg PUBLIC "-//W3C//DTD SVG 1.1//EN" "http://www.w3.org/Graphics/SVG/1.1/DTD/svg11.dtd">
<svg version="1.1" id="Ebene_1" xmlns="http://www.w3.org/2000/svg" xmlns:xlink="http://www.w3.org/1999/xlink" x="0px" y="0px"
	 width="566.93px" height="566.93px" viewBox="0 0 566.93 566.93" enable-background="new 0 0 566.93 566.93" xml:space="preserve">
<path fill="#FFFFFF" d="M447.755,193.866c0-90.59-73.7-164.29-164.29-164.29s-164.29,73.7-164.29,164.29
	c0,83.82,63.099,153.172,144.29,163.07v66.022h-61.1v40h61.1v74.802h40v-74.802h61.1v-40h-61.1v-66.022
	C384.655,347.038,447.755,277.687,447.755,193.866z M159.175,193.866c0-68.534,55.756-124.29,124.29-124.29
	c68.534,0,124.29,55.756,124.29,124.29s-55.756,124.29-124.29,124.29C214.931,318.156,159.175,262.4,159.175,193.866z"/>
</svg>
