<svg xmlns="http://www.w3.org/2000/svg" width="566.93" height="566.93" viewBox="0 0 566.93 566.93"><path fill="#FFF" d="M348.263 284l81.02-81.022c12.671-12.673 12.649-33.251-.071-45.968l-18.229-18.226c-12.706-12.71-33.294-12.742-45.965-.069l-81.016 81.026-81.016-81.019c-12.687-12.684-33.258-12.645-45.972.065l-18.226 18.226c-12.713 12.717-12.749 33.285-.065 45.969L219.741 284l-81.012 81.013c-12.683 12.688-12.643 33.259.066 45.969l18.226 18.229c12.717 12.717 33.285 12.753 45.968.063l81.012-81.012 81.016 81.012c12.671 12.679 33.251 12.657 45.965-.067l18.229-18.229c12.703-12.706 12.739-33.29.071-45.965L348.263 284z"/></svg>