<?xml version="1.0" encoding="utf-8"?>
<!-- Generator: Adobe Illustrator 16.0.0, SVG Export Plug-In . SVG Version: 6.00 Build 0)  -->
<!DOCTYPE svg PUBLIC "-//W3C//DTD SVG 1.1//EN" "http://www.w3.org/Graphics/SVG/1.1/DTD/svg11.dtd">
<svg version="1.1" id="Ebene_1" xmlns="http://www.w3.org/2000/svg" xmlns:xlink="http://www.w3.org/1999/xlink" x="0px" y="0px"
	 width="566.93px" height="566.93px" viewBox="0 0 566.93 566.93" enable-background="new 0 0 566.93 566.93" xml:space="preserve">
<path fill="#FFFFFF" d="M444.785,189.407l36.041-9.103L445.736,41.37l-36.041,9.103l0,0L300.606,78.024l9.104,36.04l84.651-21.381
	L321.52,211.305c-21.357-9.775-44.572-14.9-68.143-14.9c-27.578,0-54.936,6.993-79.118,20.223
	c-24.956,13.653-46.056,33.75-61.019,58.117C90.275,312.14,83.248,356.24,93.453,398.92c10.205,42.681,36.42,78.832,73.815,101.796
	c25.898,15.903,55.58,24.31,85.834,24.31c27.578,0,54.937-6.992,79.118-20.223c24.956-13.652,46.057-33.749,61.02-58.116
	c43.861-71.428,26.382-163.545-37.625-214.466l70.845-115.369L444.785,189.407z M359.154,425.755
	c-22.791,37.113-62.437,59.271-106.052,59.271c-22.861,0-45.304-6.36-64.902-18.396c-28.291-17.373-48.124-44.723-55.844-77.012
	c-7.72-32.288-2.404-65.651,14.969-93.942c22.79-37.113,62.435-59.271,106.051-59.271c22.861,0,45.304,6.361,64.903,18.396
	C376.68,290.664,395.017,367.354,359.154,425.755z"/>
</svg>
