<svg xmlns="http://www.w3.org/2000/svg" xmlns:xlink="http://www.w3.org/1999/xlink" width="566.93" height="566.93" viewBox="0 0 566.93 566.93"><defs><path id="a" d="M38.123 61.301h490.506v447.871H38.123z"/></defs><clipPath id="b"><use xlink:href="#a" overflow="visible"/></clipPath><path clip-path="url(#b)" fill="#FFF" d="M399.845 225.33c0 13.576-11.009 24.586-24.585 24.586s-24.586-11.01-24.586-24.586c0-13.575 11.01-24.58 24.586-24.58s24.585 11.005 24.585 24.58m-58.299 80.238c0 21.126-26.045 38.252-58.17 38.252-32.123 0-58.167-17.126-58.167-38.252 0-21.127 26.044-38.256 58.167-38.256 32.125.001 58.17 17.129 58.17 38.256M213.612 225.33c0 13.576-11.002 24.586-24.581 24.586-13.576 0-24.585-11.01-24.585-24.586 0-13.575 11.009-24.58 24.585-24.58 13.579 0 24.581 11.005 24.581 24.58m113.939 223.118c0-18.628 15.107-33.731 33.737-33.731 18.634 0 33.736 15.104 33.736 33.731s-15.103 33.742-33.736 33.742c-18.63 0-33.737-15.114-33.737-33.742m167.32-294.959c18.628-27.615 12.14-64.573-14.492-82.529-26.638-17.974-63.33-10.14-81.953 17.476-.626.926-1.157 1.893-1.724 2.843-33.906-14.644-72.434-22.97-113.326-22.97-40.897 0-79.418 8.326-113.321 22.97-.573-.95-1.099-1.917-1.727-2.843-18.628-27.616-55.315-35.45-81.95-17.476-26.634 17.956-33.123 54.914-14.491 82.529 1.763 2.623 3.738 5.002 5.805 7.257-24.993 31.792-39.569 69.706-39.569 110.456 0 112.057 109.805 202.896 245.253 202.896 7.591 0 15.051-.407 22.455-.983 9.461 21.239 30.713 36.059 55.457 36.059 33.538 0 60.725-27.185 60.725-60.724 0-3.232-.33-6.375-.804-9.473 64.815-36.512 107.426-98.003 107.426-167.774 0-40.75-14.577-78.663-39.574-110.456 2.074-2.256 4.041-4.636 5.81-7.258"/></svg>