<?xml version="1.0" standalone="no"?>
<!DOCTYPE svg PUBLIC "-//W3C//DTD SVG 20010904//EN"
 "http://www.w3.org/TR/2001/REC-SVG-20010904/DTD/svg10.dtd">
<svg version="1.0" xmlns="http://www.w3.org/2000/svg"
 width="16.000000pt" height="16.000000pt" viewBox="0 0 16.000000 16.000000"
 preserveAspectRatio="xMidYMid meet">
<metadata>
Created by potrace 1.11, written by Peter Selinger 2001-2013
</metadata>
<g transform="translate(0.000000,16.000000) scale(0.004000,-0.004000)"
fill="#000000" stroke="none">
<path d="M0 2000 l0 -2000 2000 0 2000 0 0 2000 0 2000 -2000 0 -2000 0 0
-2000z m1309 1014 c30 -16 70 -47 89 -70 l34 -42 82 30 c185 68 409 97 611 78
132 -12 319 -53 399 -88 l46 -21 57 57 c74 73 136 97 231 90 76 -6 130 -29
181 -80 41 -40 79 -118 87 -180 7 -53 -15 -142 -52 -199 -13 -21 -24 -41 -24
-44 0 -3 16 -27 35 -54 45 -62 108 -198 131 -281 26 -92 26 -347 1 -440 -66
-239 -251 -470 -489 -611 -88 -52 -88 -52 -88 -93 -1 -81 -63 -170 -145 -207
-95 -43 -237 -9 -293 71 l-26 36 -161 0 c-181 1 -304 18 -455 66 -396 126
-691 416 -777 765 -22 92 -22 294 0 386 24 98 72 206 129 294 43 67 47 77 35
92 -53 60 -80 185 -58 268 23 86 100 169 186 201 17 7 64 10 105 9 61 -3 86
-9 129 -33z"/>
<path d="M1475 2275 c-50 -49 -15 -135 55 -135 60 0 102 76 67 121 -33 43 -87
50 -122 14z"/>
<path d="M2425 2275 c-51 -50 -18 -135 52 -135 40 0 71 27 79 67 5 27 1 37
-24 63 -37 37 -74 39 -107 5z"/>
<path d="M1890 1995 c-66 -18 -126 -58 -158 -105 -19 -28 -23 -44 -19 -82 17
-183 356 -252 521 -107 61 54 76 101 52 164 -20 50 -57 83 -131 116 -64 28
-189 35 -265 14z"/>
<path d="M2328 1193 c-91 -57 -66 -203 39 -229 68 -17 153 50 153 121 0 38
-36 95 -70 112 -35 18 -90 16 -122 -4z"/>
</g>
</svg>
