<?xml version="1.0" encoding="utf-8"?>
<!-- Generator: Adobe Illustrator 16.0.0, SVG Export Plug-In . SVG Version: 6.00 Build 0)  -->
<!DOCTYPE svg PUBLIC "-//W3C//DTD SVG 1.1//EN" "http://www.w3.org/Graphics/SVG/1.1/DTD/svg11.dtd">
<svg version="1.1" id="Ebene_1" xmlns="http://www.w3.org/2000/svg" xmlns:xlink="http://www.w3.org/1999/xlink" x="0px" y="0px"
	 width="566.93px" height="566.93px" viewBox="0 0 566.93 566.93" enable-background="new 0 0 566.93 566.93" xml:space="preserve">
<path fill="#FFFFFF" d="M447.957,200.949l29.268-6.585L444.869,50.549L305.656,82.039l6.584,29.269l89.008-20.025l-75.813,123.459
	c-21.791-10.712-45.729-16.337-70.058-16.337c-26.741,0-53.271,6.781-76.719,19.609c-24.193,13.236-44.65,32.72-59.158,56.346
	c-22.266,36.258-29.078,79.016-19.184,120.397c9.894,41.381,35.311,76.433,71.568,98.697c25.111,15.42,53.888,23.57,83.218,23.57
	c26.741,0,53.271-6.78,76.719-19.608c24.193-13.236,44.649-32.721,59.158-56.347c43.313-70.537,24.93-161.882-39.976-210.64
	l75.812-123.455L447.957,200.949z M365.415,425.371c-23.707,38.606-64.945,61.654-110.313,61.654
	c-23.785,0-47.133-6.616-67.519-19.135c-29.43-18.071-50.06-46.521-58.091-80.109c-8.03-33.588-2.501-68.293,15.571-97.722
	c23.707-38.606,64.945-61.655,110.313-61.655c23.785,0,47.133,6.617,67.519,19.135C383.646,284.846,402.72,364.621,365.415,425.371z
	"/>
</svg>
