<?xml version="1.0" encoding="utf-8"?>
<!-- Generator: Adobe Illustrator 16.0.0, SVG Export Plug-In . SVG Version: 6.00 Build 0)  -->
<!DOCTYPE svg PUBLIC "-//W3C//DTD SVG 1.1//EN" "http://www.w3.org/Graphics/SVG/1.1/DTD/svg11.dtd">
<svg version="1.1" id="Ebene_1" xmlns="http://www.w3.org/2000/svg" xmlns:xlink="http://www.w3.org/1999/xlink" x="0px" y="0px"
	 width="566.93px" height="566.93px" viewBox="0 0 566.93 566.93" enable-background="new 0 0 566.93 566.93" xml:space="preserve">
<g>
	<defs>
		<rect id="SVGID_1_" x="38.123" y="61.301" width="490.506" height="447.871"/>
	</defs>
	<clipPath id="SVGID_2_">
		<use xlink:href="#SVGID_1_"  overflow="visible"/>
	</clipPath>
	<path clip-path="url(#SVGID_2_)" fill="#FFFFFF" d="M399.845,225.33c0,13.576-11.009,24.586-24.585,24.586
		s-24.586-11.01-24.586-24.586c0-13.575,11.01-24.58,24.586-24.58S399.845,211.755,399.845,225.33 M341.546,305.568
		c0,21.126-26.045,38.252-58.17,38.252c-32.123,0-58.167-17.126-58.167-38.252c0-21.127,26.044-38.256,58.167-38.256
		C315.501,267.313,341.546,284.441,341.546,305.568 M213.612,225.33c0,13.576-11.002,24.586-24.581,24.586
		c-13.576,0-24.585-11.01-24.585-24.586c0-13.575,11.009-24.58,24.585-24.58C202.61,200.75,213.612,211.755,213.612,225.33
		 M327.551,448.448c0-18.628,15.107-33.731,33.737-33.731c18.634,0,33.736,15.104,33.736,33.731s-15.103,33.742-33.736,33.742
		C342.658,482.19,327.551,467.076,327.551,448.448 M494.871,153.489c18.628-27.615,12.14-64.573-14.492-82.529
		c-26.638-17.974-63.33-10.14-81.953,17.476c-0.626,0.926-1.157,1.893-1.724,2.843c-33.906-14.644-72.434-22.97-113.326-22.97
		c-40.897,0-79.418,8.326-113.321,22.97c-0.573-0.95-1.099-1.917-1.727-2.843C149.7,60.82,113.013,52.986,86.378,70.96
		c-26.634,17.956-33.123,54.914-14.491,82.529c1.763,2.623,3.738,5.002,5.805,7.257c-24.993,31.792-39.569,69.706-39.569,110.456
		c0,112.057,109.805,202.896,245.253,202.896c7.591,0,15.051-0.407,22.455-0.983c9.461,21.239,30.713,36.059,55.457,36.059
		c33.538,0,60.725-27.185,60.725-60.724c0-3.232-0.33-6.375-0.804-9.473c64.815-36.512,107.426-98.003,107.426-167.774
		c0-40.75-14.577-78.663-39.574-110.456C491.135,158.491,493.102,156.111,494.871,153.489"/>
</g>
</svg>
